<?xml version="1.0" encoding="UTF-8" standalone="no"?>
<!-- Created with Inkscape (http://www.inkscape.org/) -->

<svg
   xmlns:dc="http://purl.org/dc/elements/1.1/"
   xmlns:cc="http://creativecommons.org/ns#"
   xmlns:rdf="http://www.w3.org/1999/02/22-rdf-syntax-ns#"
   xmlns:svg="http://www.w3.org/2000/svg"
   xmlns="http://www.w3.org/2000/svg"
   xmlns:xlink="http://www.w3.org/1999/xlink"
   xmlns:sodipodi="http://sodipodi.sourceforge.net/DTD/sodipodi-0.dtd"
   xmlns:inkscape="http://www.inkscape.org/namespaces/inkscape"
   width="11in"
   height="17in"
   viewBox="0 0 990 1530"
   id="svg5120"
   version="1.1"
   inkscape:version="0.91 r13725"
   sodipodi:docname="label.svg">
  <defs
     id="defs5122">
    <rect
       height="74"
       width="74"
       id="r0"
       x="0"
       y="0"
       style="fill:#000000" />
    <rect
       height="74"
       width="74"
       id="r0-4"
       x="0"
       y="0"
       style="fill:#000000" />
  </defs>
  <sodipodi:namedview
     id="base"
     pagecolor="#ffffff"
     bordercolor="#666666"
     borderopacity="1.0"
     inkscape:pageopacity="0.0"
     inkscape:pageshadow="2"
     inkscape:zoom="0.98994949"
     inkscape:cx="322.39921"
     inkscape:cy="699.38881"
     inkscape:document-units="px"
     inkscape:current-layer="layer1"
     showgrid="false"
     units="in"
     inkscape:window-width="1440"
     inkscape:window-height="855"
     inkscape:window-x="0"
     inkscape:window-y="1"
     inkscape:window-maximized="1" />
  <metadata
     id="metadata5125">
    <rdf:RDF>
      <cc:Work
         rdf:about="">
        <dc:format>image/svg+xml</dc:format>
        <dc:type
           rdf:resource="http://purl.org/dc/dcmitype/StillImage" />
        <dc:title></dc:title>
      </cc:Work>
    </rdf:RDF>
  </metadata>
  <g
     inkscape:label="Layer 1"
     inkscape:groupmode="layer"
     id="layer1"
     transform="translate(0,477.6378)">
    <rect
       style="opacity:1;fill:none;fill-opacity:1;stroke:#000000;stroke-width:0.99770784;stroke-miterlimit:4;stroke-dasharray:none;stroke-dashoffset:0;stroke-opacity:1"
       id="rect5668"
       width="371.04953"
       height="523.41174"
       x="131.60123"
       y="-594.77673"
       transform="matrix(0,1,-1,0,0,0)" />
    <rect
       transform="matrix(0,1,-1,0,0,0)"
       y="-559.42511"
       x="166.95285"
       height="452.7085"
       width="300.34628"
       id="rect5672"
       style="opacity:1;fill:none;fill-opacity:1;stroke:none;stroke-width:1;stroke-miterlimit:4;stroke-dasharray:none;stroke-dashoffset:0;stroke-opacity:1" />
    <path
       style="fill:#000000;fill-opacity:1"
       d="m 454.38206,444.15865 c -1.14312,-0.23072 -1.9675,-1.11282 -2.15153,-2.30212 -0.0482,-0.31096 -0.0689,-4.06512 -0.055,-9.94495 l 0.0224,-9.4454 0.18172,-0.44962 c 0.24146,-0.59752 0.80151,-1.18298 1.39911,-1.46261 l 0.47424,-0.2219 4.70295,0 4.70296,0 0.46586,0.22876 c 0.56766,0.27873 0.99766,0.69555 1.2901,1.25058 l 0.22007,0.41766 0.021,9.89374 c 0.0209,9.86132 0.0204,9.89517 -0.14389,10.33435 -0.23026,0.61538 -0.80893,1.22669 -1.43484,1.5157 l -0.49729,0.22963 -4.42631,0.0129 c -2.43446,0.007 -4.58165,-0.0185 -4.77155,-0.0567 z m 9.35653,-0.97197 c 0.21767,-0.10136 0.51018,-0.31457 0.64998,-0.47381 0.52136,-0.59379 0.50025,-0.12318 0.47703,-10.64797 l -0.0211,-9.51968 -0.17213,-0.32156 c -0.22725,-0.42455 -0.73281,-0.87294 -1.10737,-0.98213 -0.20979,-0.0611 -1.65989,-0.0806 -4.77342,-0.0639 l -4.4721,0.024 -0.38685,0.23921 c -0.23968,0.1482 -0.47782,0.38638 -0.62604,0.62608 l -0.23922,0.38692 -0.0227,9.60971 c -0.0176,7.425 -5.2e-4,9.69057 0.0747,9.96539 0.11811,0.43155 0.75991,1.11011 1.17316,1.24037 0.18656,0.0588 1.70489,0.0896 4.66342,0.0945 l 4.38677,0.007 0.39578,-0.18431 z m -5.23056,-0.59757 c -0.47629,-0.12059 -0.94767,-0.4647 -1.22185,-0.89199 -0.24302,-0.37871 -0.26665,-0.46882 -0.26665,-1.01637 0,-0.53055 0.0279,-0.6463 0.23942,-0.98982 0.81062,-1.31705 2.6286,-1.29139 3.38821,0.0479 0.54327,0.95783 0.16791,2.17349 -0.82998,2.688 -0.33763,0.17407 -0.95865,0.2511 -1.30915,0.16235 z m 0.98224,-0.95504 c 0.39501,-0.24084 0.5871,-0.6026 0.54997,-1.0357 -0.0528,-0.6143 -0.48236,-1.01981 -1.08057,-1.01981 -0.66344,0 -1.10937,0.44547 -1.10992,1.10876 -5.4e-4,0.84967 0.92425,1.38347 1.64052,0.94675 z m -2.5735,-10.76583 c -0.18101,-0.18101 -0.10866,-0.51176 0.16203,-0.74069 0.68528,-0.57958 1.80723,-0.81269 2.68429,-0.55773 0.55041,0.16001 1.18468,0.59029 1.2845,0.87138 0.15849,0.44639 -0.30759,0.6773 -0.7423,0.36778 -0.86368,-0.615 -1.88452,-0.63533 -2.64833,-0.0528 -0.2901,0.22127 -0.58613,0.26608 -0.74019,0.11201 z m -1.39338,-1.37306 c -0.28065,-0.28062 -0.0659,-0.64336 0.68174,-1.151 1.44195,-0.9792 3.28052,-1.11282 4.85353,-0.35273 0.6269,0.30292 1.34337,0.84995 1.41699,1.08185 0.0661,0.2081 -0.15809,0.54609 -0.36213,0.54609 -0.0872,0 -0.34216,-0.14512 -0.56655,-0.32248 -0.80736,-0.63819 -1.64631,-0.94327 -2.58552,-0.94023 -1.02747,0.003 -1.7954,0.27605 -2.58262,0.91725 -0.45189,0.36806 -0.65587,0.42083 -0.85544,0.22125 z m -1.33709,-1.36403 c -0.22635,-0.2501 -0.15454,-0.45025 0.31575,-0.88005 0.87199,-0.79697 2.07664,-1.36138 3.39595,-1.59113 0.72317,-0.12593 2.12336,-0.0461 2.86182,0.1632 1.26956,0.3598 2.88189,1.39224 3.0522,1.95447 0.0568,0.18773 -0.17969,0.49805 -0.37964,0.49805 -0.0594,0 -0.35286,-0.19577 -0.6521,-0.43503 -1.17577,-0.94022 -2.3926,-1.38573 -3.79415,-1.38919 -1.54398,-0.004 -2.83168,0.47658 -4.00674,1.49475 -0.41779,0.36203 -0.59536,0.40342 -0.79309,0.18493 z m 3.20867,-5.34987 c -0.22817,-0.16224 -0.22922,-0.46775 -0.002,-0.62678 0.143,-0.10017 0.43697,-0.12305 1.58082,-0.12305 1.29977,0 1.41701,0.0118 1.56323,0.15808 0.18703,0.18703 0.19799,0.31036 0.046,0.51841 -0.1027,0.14064 -0.23288,0.15537 -1.56108,0.1766 -1.22691,0.0197 -1.47626,0.004 -1.62685,-0.10326 z m -11.52917,10.87075 c -1.665,-0.25002 -3.05917,-1.50702 -3.42308,-3.08634 -0.13487,-0.58525 -0.10794,-4.06692 0.0358,-4.61843 0.37747,-1.44923 1.50101,-2.55221 2.99965,-2.94478 l 0.54158,-0.14187 0.18783,-1.02714 c 0.49767,-2.72162 1.63744,-4.90253 3.57545,-6.84147 2.38332,-2.38448 5.22297,-3.63493 8.54778,-3.76405 3.07214,-0.11931 5.76208,0.6958 8.19995,2.48481 2.69482,1.97755 4.47145,4.90311 5.05056,8.31665 l 0.14046,0.8279 0.54789,0.14352 c 1.49218,0.39087 2.6311,1.50723 3.00596,2.94643 0.1474,0.56591 0.17219,3.89257 0.034,4.55745 -0.28016,1.34757 -1.40506,2.57615 -2.73475,2.98684 -0.60458,0.18675 -1.40231,0.2346 -1.54438,0.0926 -0.0774,-0.0773 -0.1098,-1.34017 -0.14515,-5.64828 -0.0435,-5.30629 -0.053,-5.58079 -0.2152,-6.28152 -1.00891,-4.35767 -3.96149,-7.65545 -8.05467,-8.9964 -1.41714,-0.46427 -2.50426,-0.61165 -4.13356,-0.56042 -1.95043,0.0615 -3.25395,0.37919 -4.90459,1.1959 -3.34999,1.65752 -5.5692,4.49657 -6.49042,8.30327 -0.16592,0.68565 -0.1738,0.91333 -0.21785,6.29964 -0.0291,3.55968 -0.0744,5.61636 -0.12475,5.66561 -0.12582,0.12308 -0.44233,0.15554 -0.87837,0.09 z m 0.0879,-5.33682 0,-4.42629 -0.22126,-0.0254 c -0.33596,-0.0385 -1.15124,0.38285 -1.59044,0.82204 -0.47088,0.47088 -0.81545,1.17656 -0.92825,1.90104 -0.0484,0.31031 -0.0688,1.19192 -0.0485,2.08191 0.0299,1.30262 0.0608,1.61365 0.19822,1.99167 0.32746,0.90026 0.96495,1.57742 1.81789,1.93104 0.85225,0.35335 0.77235,0.79569 0.77235,-4.27601 z m 26.93341,4.13189 c 0.80958,-0.43012 1.4037,-1.23401 1.60129,-2.16664 0.13337,-0.62948 0.15991,-3.04547 0.0414,-3.76902 -0.10781,-0.65828 -0.40634,-1.25308 -0.88063,-1.75458 -0.46979,-0.49672 -1.26467,-0.93473 -1.62219,-0.89387 l -0.22686,0.0258 -0.0205,4.34725 c -0.0113,2.39099 -0.002,4.39561 0.0207,4.4547 0.0598,0.1562 0.53446,0.0497 1.08691,-0.24377 z"
       id="path10357"
       inkscape:connector-curvature="0" />
    <path
       style="fill:#010101"
       d="m 385.1733,444.14865 c -2.83506,-0.31875 -5.62949,-1.43477 -8.01904,-3.2026 -0.9015,-0.66694 -2.54637,-2.2834 -3.18493,-3.1299 -2.30175,-3.05133 -3.42484,-6.36316 -3.42484,-10.09936 0,-4.48305 1.66107,-8.48301 4.84488,-11.66684 2.51942,-2.51941 5.50424,-4.05744 9.05973,-4.66834 0.92144,-0.15832 3.37684,-0.21965 4.35254,-0.10872 3.10241,0.35272 5.81781,1.4439 8.35394,3.35701 0.74982,0.56563 2.4219,2.2377 2.98752,2.98752 1.89028,2.50586 3.02253,5.31399 3.34824,8.30412 0.0961,0.88214 0.098,2.71205 0.003,3.56953 -0.25481,2.31826 -1.06374,4.71027 -2.29012,6.77197 -1.25131,2.10358 -3.49893,4.35122 -5.60253,5.60252 -2.06169,1.22638 -4.45371,2.03531 -6.77196,2.29012 -0.76664,0.0843 -2.88135,0.0802 -3.6572,-0.007 z m 3.34175,-1.87893 c 5.70507,-0.57711 10.60165,-4.49258 12.40327,-9.91806 1.55241,-4.67499 0.71903,-9.60949 -2.29066,-13.56318 -0.23808,-0.31274 -0.48193,-0.58747 -0.54188,-0.61047 -0.0753,-0.029 -3.27264,3.12176 -10.349,10.19797 -5.63198,5.63188 -10.23999,10.2801 -10.23999,10.32936 0,0.23086 1.86029,1.50406 3.09775,2.12012 2.42678,1.20813 5.21996,1.71745 7.92051,1.44426 z m 1.69143,-7.08709 c -0.62794,-0.0807 -1.19587,-0.26286 -1.53854,-0.49341 -0.32741,-0.22029 -0.76256,-0.73965 -0.88042,-1.05079 -0.063,-0.16635 -0.0531,-0.20957 0.0629,-0.27158 0.17084,-0.0914 8.17664,-0.10034 8.32038,-0.009 0.15652,0.0992 0.0337,0.34363 -0.37922,0.75509 -0.45514,0.45347 -0.91551,0.71165 -1.63841,0.91888 -0.45724,0.13107 -0.77722,0.15967 -2.02752,0.18128 -0.81653,0.0141 -1.68014,5e-4 -1.91912,-0.0302 z m -7.76475,-0.0596 c -0.0611,-0.0426 0.43298,-0.58219 1.60862,-1.75702 0.93326,-0.93264 1.71056,-1.6809 1.72729,-1.6628 0.0168,0.0181 -0.0497,0.6521 -0.14781,1.40888 -0.20509,1.58302 -0.21548,1.60394 -0.9185,1.85008 -0.47446,0.16611 -2.09662,0.28108 -2.2696,0.16086 z m 5.16174,-2.71504 c -0.15748,-0.22483 -0.14046,-0.51571 0.0397,-0.67876 0.14628,-0.13238 0.32508,-0.13796 4.424,-0.13796 l 4.27157,0 0.14441,0.17835 c 0.16702,0.20625 0.13532,0.56075 -0.0634,0.7088 -0.094,0.07 -1.09278,0.0905 -4.41252,0.0905 l -4.29105,0 -0.11272,-0.16096 z m 0.12867,-1.84266 c 0.12947,-0.79782 0.90643,-1.72513 1.79921,-2.14737 0.81131,-0.38372 1.17685,-0.44812 2.52184,-0.44425 1.10896,0.003 1.2366,0.0177 1.77429,0.20214 1.0544,0.36164 1.88202,1.06433 2.27564,1.93212 0.0809,0.17853 0.14795,0.41421 0.14883,0.52374 l 0.002,0.19916 -4.28225,0 -4.28225,0 0.0431,-0.26554 z m -1.3461,-3.51869 c 7.47731,-7.47731 10.15717,-10.20018 10.15717,-10.32017 0,-0.12244 -0.18344,-0.29951 -0.73726,-0.71169 -3.89501,-2.89876 -8.78373,-3.69022 -13.36948,-2.16448 -4.35868,1.45022 -7.79655,4.88808 -9.24675,9.24676 -1.52577,4.58575 -0.73429,9.47447 2.16447,13.36949 0.41218,0.55382 0.58925,0.73726 0.71169,0.73726 0.11999,0 2.84286,-2.67987 10.32016,-10.15717 z m -5.84761,4.27543 c 0,-0.0839 -0.48977,-3.94722 -0.94287,-7.43733 -0.11591,-0.89281 -0.23633,-1.64799 -0.26761,-1.6782 -0.0313,-0.0302 -0.15435,-0.0656 -0.27351,-0.0786 -0.13671,-0.0149 -0.22551,-0.0705 -0.24067,-0.15041 -0.021,-0.11019 0.0375,-0.12674 0.4476,-0.12674 0.44617,0 0.48969,-0.0157 0.80633,-0.28969 l 0.3347,-0.28967 1.79225,0 c 1.32521,0 1.82172,-0.0235 1.90533,-0.0905 0.0622,-0.0498 0.16788,-0.31866 0.23484,-0.59746 0.26625,-1.10872 0.17743,-0.98227 1.0617,-1.51153 0.83138,-0.4976 0.937,-0.54168 0.93329,-0.3895 -0.002,0.0497 -0.35154,0.30295 -0.77851,0.56258 l -0.77631,0.47205 -0.17277,0.6674 c -0.22604,0.87317 -0.21525,0.88698 0.69369,0.88698 l 0.68423,0 0.34355,0.28967 c 0.31986,0.26972 0.37442,0.28969 0.7915,0.28969 0.39968,0 0.44796,0.0156 0.44796,0.14484 0,0.11288 -0.0483,0.14484 -0.21881,0.14484 -0.15779,0 -0.23843,0.0454 -0.28916,0.16295 -0.0388,0.0896 -0.15324,0.83101 -0.25454,1.64755 l -0.18418,1.4846 -2.98437,2.98732 c -1.64141,1.64302 -3.00897,2.98731 -3.03902,2.98731 -0.03,0 -0.0546,-0.0397 -0.0546,-0.0881 z"
       id="path11669"
       inkscape:connector-curvature="0" />
    <g
       id="g11843"
       transform="matrix(0.55057485,0,0,0.55057485,212.36524,230.81038)">
      <g
         transform="matrix(0.94526151,0,0,0.94526151,-44.672929,8.1254459)"
         id="g11832">
        <g
           id="g11827">
          <path
             inkscape:connector-curvature="0"
             id="path9368"
             d="m 438.53656,382.36216 c -1.57305,-0.12793 -2.68216,-1.02015 -2.92057,-2.34944 -0.1048,-0.58432 -0.10328,-15.58605 0.002,-16.15841 0.22637,-1.23491 1.03426,-2.01876 2.38713,-2.31607 0.16186,-0.0356 0.18172,-0.0771 0.2222,-0.46433 0.0921,-0.88132 0.72993,-1.78672 1.51036,-2.14401 0.33385,-0.15284 0.46609,-0.17158 1.24393,-0.17625 0.97881,-0.006 1.20126,0.0548 1.70008,0.46351 0.16198,0.13274 0.42234,0.45649 0.57856,0.71946 0.24706,0.41586 0.28824,0.54348 0.31626,0.98005 l 0.0322,0.50193 0.4859,0.0377 c 0.26725,0.0207 1.09349,0.0306 1.8361,0.0221 l 1.3502,-0.0156 0.67728,-0.71625 c 0.37251,-0.39393 0.90068,-0.97716 1.17371,-1.29605 0.75807,-0.88543 1.53655,-1.63554 2.08372,-2.0078 l 0.49471,-0.33657 3.6688,0.005 3.66881,0.005 0.47442,0.33131 c 0.26094,0.18222 0.73642,0.59232 1.05662,0.91132 0.55224,0.55017 0.76671,0.85297 1.49791,2.11482 0.60683,1.04721 0.48661,0.93451 1.04132,0.97624 0.27165,0.0204 0.97901,0.0394 1.57192,0.0421 1.25043,0.006 1.86938,0.11656 2.43498,0.43613 0.622,0.35143 0.92081,0.74614 1.06785,1.41052 0.0625,0.28226 0.0841,2.34343 0.0874,8.32206 0.005,8.63122 0.006,8.60353 -0.36905,9.2453 -0.22678,0.38826 -0.7957,0.89924 -1.21466,1.09095 -0.9112,0.41696 0.0311,0.39089 -14.44206,0.39953 -7.25963,0.004 -13.43256,-0.0111 -13.71762,-0.0343 z m 27.20015,-1.34758 c 0.19328,-0.0469 0.49113,-0.1739 0.6619,-0.2822 0.43294,-0.27456 0.58811,-0.60967 0.65937,-1.42405 0.0316,-0.36067 0.05,-4.017 0.041,-8.12516 -0.0128,-5.8138 -0.0354,-7.51475 -0.10217,-7.67403 -0.13477,-0.32161 -0.34739,-0.50521 -0.72069,-0.62236 -0.33475,-0.10504 -0.5372,-0.11304 -3.96764,-0.15679 l -0.41653,-0.005 -0.70254,-1.21079 c -0.3864,-0.66594 -0.81696,-1.37962 -0.95681,-1.58597 -0.24281,-0.35828 -0.88678,-0.99993 -1.36919,-1.36427 l -0.2258,-0.17054 -3.2823,0 -3.28229,0 -0.37268,0.28138 c -0.20497,0.15476 -0.58627,0.51752 -0.84734,0.80613 -0.26106,0.28861 -1.03845,1.13659 -1.72753,1.8844 l -1.25287,1.35966 -0.55479,0.007 c -0.30514,0.004 -2.30447,0.006 -4.44297,0.005 -2.1385,-8.1e-4 -4.13952,0.0253 -4.44671,0.058 -0.88945,0.0947 -1.34448,0.39989 -1.57276,1.05487 -0.11064,0.31747 -0.11916,0.88916 -0.11933,8.01588 -1.3e-4,4.22072 0.0233,7.78473 0.0521,7.92003 0.076,0.35739 0.41366,0.82918 0.71185,0.99454 0.24799,0.13752 0.77976,0.27462 1.21381,0.31294 0.11255,0.01 6.15969,0.0156 13.43808,0.0126 10.34034,-0.004 13.31027,-0.0241 13.58485,-0.0908 z m -11.02684,-1.37583 c -0.86553,-0.0513 -1.27457,-0.12708 -2.06178,-0.38214 -2.49633,-0.80883 -4.5842,-2.93142 -5.37567,-5.46507 -0.52892,-1.69314 -0.43421,-3.90554 0.23369,-5.45899 0.61956,-1.44105 1.50625,-2.61882 2.58166,-3.42916 1.62166,-1.22196 3.18497,-1.76785 5.06549,-1.76879 0.93942,-4.8e-4 1.68437,0.10289 2.43784,0.33826 2.53348,0.79142 4.65242,2.87544 5.46575,5.37567 0.52905,1.62635 0.52894,3.59527 -2.8e-4,5.08361 -0.2843,0.79953 -0.76666,1.73058 -1.18562,2.28847 -0.46373,0.61749 -1.36365,1.5092 -1.95758,1.93971 -0.84717,0.61406 -2.25154,1.20196 -3.27306,1.37017 -0.90415,0.14888 -1.07902,0.15869 -1.93041,0.10826 z m 1.33664,-1.32399 c 0.5823,-0.0437 1.72723,-0.37326 2.30355,-0.66296 1.73046,-0.86984 2.96713,-2.35132 3.52065,-4.21758 0.49203,-1.65894 0.32597,-3.72655 -0.41816,-5.20669 -0.68975,-1.37198 -1.8927,-2.54236 -3.24785,-3.15992 -2.09989,-0.95695 -4.47979,-0.87357 -6.49623,0.22759 -2.35022,1.28344 -3.73511,3.98274 -3.47293,6.76914 0.22669,2.40927 1.65495,4.51449 3.79155,5.58865 0.85057,0.42762 2.50689,0.78897 3.2967,0.71922 0.13132,-0.0116 0.45654,-0.0374 0.72272,-0.0575 z m -1.8333,-2.02746 c -1.23674,-0.24875 -2.46758,-1.1006 -3.23538,-2.23916 -0.58273,-0.86413 -0.88176,-2.08503 -0.76456,-3.12168 0.0916,-0.81001 0.16113,-1.04206 0.52623,-1.75559 0.25566,-0.49963 0.43542,-0.7352 0.96557,-1.26536 0.53016,-0.53015 0.76573,-0.70991 1.26535,-0.96556 0.71354,-0.36511 0.94559,-0.43467 1.7556,-0.52624 2.01271,-0.22754 4.04424,0.95874 4.99745,2.91819 0.31371,0.64488 0.46082,1.34544 0.44863,2.13652 -0.0128,0.82898 -0.12702,1.28369 -0.52818,2.10222 -0.27151,0.554 -0.4125,0.74294 -0.97164,1.30208 -0.55878,0.55878 -0.74843,0.70035 -1.30208,0.97197 -0.35641,0.17486 -0.8322,0.36206 -1.05731,0.41599 -0.61707,0.14786 -1.44474,0.15835 -2.09968,0.0266 z m 2.09968,-1.36531 c 1.17329,-0.33281 2.03292,-1.18204 2.39669,-2.36767 0.40885,-1.33255 0.11765,-2.7311 -0.76777,-3.68746 -0.74141,-0.80081 -1.5955,-1.16259 -2.74466,-1.16259 -1.09013,0 -2.01177,0.37128 -2.69204,1.08448 -0.67799,0.71079 -1.00128,1.55314 -1.00128,2.60884 0,2.01641 1.32627,3.4686 3.37658,3.69717 0.34979,0.039 0.93456,-0.0315 1.43248,-0.17277 z m -16.48806,-4.61647 c -1.37796,-0.35948 -2.36893,-1.77134 -2.1646,-3.08394 0.19429,-1.24807 1.19866,-2.25244 2.44673,-2.44673 1.7026,-0.26505 3.4101,1.4429 3.13712,3.13794 -0.26758,1.66155 -1.88459,2.7931 -3.41925,2.39273 z m 1.29474,-1.34255 c 0.55883,-0.2335 0.83136,-0.69083 0.83136,-1.39512 0,-0.96151 -0.53811,-1.5007 -1.4977,-1.5007 -0.95235,0 -1.49589,0.53869 -1.49921,1.48583 -0.003,0.96595 0.53072,1.51073 1.48434,1.51407 0.23593,8.2e-4 0.5421,-0.046 0.68121,-0.10408 z m 1.16198,-7.8597 c 0.0226,-0.39336 -0.15026,-0.80151 -0.40752,-0.96218 -0.17366,-0.10845 -1.23858,-0.15926 -1.56048,-0.0745 -0.41998,0.11065 -0.81531,0.66877 -0.81531,1.15104 0,0.24829 0.0296,0.25278 1.63712,0.24824 l 1.12553,-0.003 0.0207,-0.35946 z"
             style="fill:#000000;fill-opacity:1" />
          <ellipse
             style="opacity:1;fill:#000000;fill-opacity:1;stroke:none;stroke-width:1;stroke-miterlimit:4;stroke-dasharray:none;stroke-dashoffset:0;stroke-opacity:1"
             id="ellipse11823"
             ry="7.3533468"
             rx="7.3336391"
             cy="371.50861"
             cx="455.29358" />
          <ellipse
             cx="455.2009"
             cy="371.41565"
             rx="4.9330359"
             ry="4.9462924"
             id="path11821"
             style="opacity:1;fill:#ffffff;fill-opacity:1;stroke:none;stroke-width:1;stroke-miterlimit:4;stroke-dasharray:none;stroke-dashoffset:0;stroke-opacity:1" />
        </g>
        <path
           style="opacity:1;fill:#000000;fill-opacity:1;stroke:none;stroke-width:1;stroke-miterlimit:4;stroke-dasharray:none;stroke-dashoffset:0;stroke-opacity:1"
           id="path11817"
           sodipodi:type="arc"
           sodipodi:cx="440.58035"
           sodipodi:cy="367.71936"
           sodipodi:rx="2.0535715"
           sodipodi:ry="2.0089285"
           sodipodi:start="0"
           sodipodi:end="5.5746689"
           sodipodi:open="true"
           d="m 442.63392,367.71936 a 2.0535715,2.0089285 0 0 1 -1.69172,1.9775 2.0535715,2.0089285 0 0 1 -2.2879,-1.28061 2.0535715,2.0089285 0 0 1 0.88545,-2.4288 2.0535715,2.0089285 0 0 1 2.59994,0.42468" />
      </g>
      <g
         transform="translate(-68.280624,-13.75)"
         id="g11839">
        <path
           inkscape:connector-curvature="0"
           style="fill:#010101"
           d="m 450.54297,279.0625 c -1.73036,0.0256 -3.55274,0.13122 -4.49414,0.29297 -6.45783,1.10957 -11.87908,3.90447 -16.45508,8.48047 -5.78277,5.78277 -8.80078,13.04691 -8.80078,21.18945 0,6.78606 2.04004,12.80164 6.2207,18.34375 1.15981,1.5375 4.14778,4.47419 5.78516,5.68555 4.34013,3.2109 9.41514,5.23746 14.56445,5.8164 1.40917,0.15847 5.25015,0.16477 6.64258,0.0117 4.21064,-0.46281 8.55613,-1.93072 12.30078,-4.1582 3.82075,-2.27274 7.90303,-6.35504 10.17578,-10.17578 2.22748,-3.74466 3.69734,-8.09014 4.16016,-12.30078 0.17104,-1.55744 0.16671,-4.8802 -0.008,-6.48243 -0.59159,-5.43094 -2.64873,-10.5326 -6.08204,-15.08398 -1.02734,-1.3619 -4.06389,-4.39844 -5.42578,-5.42578 -4.60636,-3.47479 -9.53894,-5.45702 -15.17383,-6.09766 -0.44303,-0.0504 -1.05263,-0.0804 -1.74609,-0.0937 -0.52009,-0.01 -1.08727,-0.0105 -1.66406,-0.002 z m -0.25195,3.40039 c 5.80456,-0.12236 11.52105,1.68889 16.38476,5.30859 1.00592,0.74863 1.33984,1.07058 1.33984,1.29297 0,0.21793 -4.86822,5.16315 -18.44921,18.74414 -13.58099,13.58099 -18.5262,18.44727 -18.74414,18.44727 -0.22238,0 -0.54434,-0.33198 -1.29297,-1.33789 -5.26501,-7.0745 -6.70287,-15.95412 -3.93164,-24.2832 2.634,-7.91664 8.87827,-14.16092 16.79492,-16.79493 2.60284,-0.866 5.26,-1.32133 7.89844,-1.37695 z m 20.52539,9.23828 c 0.10889,0.0418 0.55195,0.53937 0.98437,1.10742 5.46649,7.18108 6.97979,16.14361 4.16016,24.63477 -3.27229,9.85428 -12.16525,16.96545 -22.52735,18.01367 -4.905,0.49619 -9.97899,-0.42872 -14.38671,-2.62305 -2.24758,-1.11892 -5.62696,-3.43027 -5.62696,-3.8496 0,-0.0895 8.37024,-8.53254 18.59961,-18.76172 12.85274,-12.85249 18.66007,-18.57399 18.79688,-18.52149 z"
           id="path11809"
           transform="translate(0,62.362205)" />
        <path
           style="fill:none;fill-rule:evenodd;stroke:#000000;stroke-width:3.5;stroke-linecap:butt;stroke-linejoin:miter;stroke-miterlimit:4;stroke-dasharray:none;stroke-opacity:1"
           d="m 442.94643,379.28183 22.90179,-22.90177"
           id="path11825"
           inkscape:connector-curvature="0"
           sodipodi:nodetypes="cc" />
      </g>
    </g>
    <text
       xml:space="preserve"
       style="font-style:normal;font-weight:normal;font-size:25px;line-height:125%;font-family:sans-serif;letter-spacing:0px;word-spacing:0px;fill:#000000;fill-opacity:1;stroke:none;stroke-width:1px;stroke-linecap:butt;stroke-linejoin:miter;stroke-opacity:1"
       x="106.10671"
       y="179.03044"
       id="text13576"
       sodipodi:linespacing="125%"><tspan
         sodipodi:role="line"
         id="tspan13578"
         x="106.10671"
         y="179.03044"
         style="font-style:normal;font-variant:normal;font-weight:300;font-stretch:normal;font-size:13.75px;font-family:'SQ Market';-inkscape-font-specification:'SQ Market Light'"><tspan
   style="font-weight:bold;font-size:17.5px"
   id="tspan13604">Five Thousand Randomly Placed Needles</tspan>, 2019</tspan><tspan
         sodipodi:role="line"
         x="106.10671"
         y="198.30127"
         id="tspan13580"
         style="font-style:normal;font-variant:normal;font-weight:300;font-stretch:normal;font-size:15px;font-family:'SQ Market';-inkscape-font-specification:'SQ Market Light'">Powered ink on paper</tspan><tspan
         sodipodi:role="line"
         x="106.10671"
         y="217.05127"
         id="tspan13582"
         style="font-style:normal;font-variant:normal;font-weight:300;font-stretch:normal;font-size:13.75px;font-family:'SQ Market';-inkscape-font-specification:'SQ Market Light'" /><tspan
         sodipodi:role="line"
         x="106.10671"
         y="234.49919"
         id="tspan13584"
         style="font-style:normal;font-variant:normal;font-weight:300;font-stretch:normal;font-size:13.75px;font-family:'SQ Market';-inkscape-font-specification:'SQ Market Light'">Tribute to the simplicity and joy of working with our Hardware Security</tspan><tspan
         sodipodi:role="line"
         x="106.10671"
         y="251.68669"
         style="font-style:normal;font-variant:normal;font-weight:300;font-stretch:normal;font-size:13.75px;font-family:'SQ Market';-inkscape-font-specification:'SQ Market Light'"
         id="tspan47992">Module.</tspan><tspan
         sodipodi:role="line"
         x="106.10671"
         y="268.87421"
         style="font-style:normal;font-variant:normal;font-weight:300;font-stretch:normal;font-size:13.75px;font-family:'SQ Market';-inkscape-font-specification:'SQ Market Light'"
         id="tspan47994" /><tspan
         sodipodi:role="line"
         x="106.10671"
         y="286.06171"
         style="font-style:normal;font-variant:normal;font-weight:300;font-stretch:normal;font-size:13.75px;font-family:'SQ Market';-inkscape-font-specification:'SQ Market Light'"
         id="tspan47996">Image created using code running on a nCipher (nShield) Solo XC; an SVG</tspan><tspan
         sodipodi:role="line"
         x="106.10671"
         y="303.24921"
         style="font-style:normal;font-variant:normal;font-weight:300;font-stretch:normal;font-size:13.75px;font-family:'SQ Market';-inkscape-font-specification:'SQ Market Light'"
         id="tspan48784">was generated on the hardware.</tspan><tspan
         sodipodi:role="line"
         x="106.10671"
         y="320.43671"
         style="font-style:normal;font-variant:normal;font-weight:300;font-stretch:normal;font-size:13.75px;font-family:'SQ Market';-inkscape-font-specification:'SQ Market Light'"
         id="tspan47998" /><tspan
         sodipodi:role="line"
         x="106.10671"
         y="337.62421"
         style="font-style:normal;font-variant:normal;font-weight:300;font-stretch:normal;font-size:13.75px;font-family:'SQ Market';-inkscape-font-specification:'SQ Market Light'"
         id="tspan13598">Each needle is placed randomly (with a bias).</tspan><tspan
         sodipodi:role="line"
         x="106.10671"
         y="354.81171"
         style="font-style:normal;font-variant:normal;font-weight:300;font-stretch:normal;font-size:13.75px;font-family:'SQ Market';-inkscape-font-specification:'SQ Market Light'"
         id="tspan13602" /></text>
    <g
       style="shape-rendering:crispEdges"
       id="g48642"
       transform="matrix(0.045,0,0,0.045,478.26,386.1822)">
      <rect
         id="rect48358"
         height="2000"
         width="2000"
         y="0"
         x="0"
         style="fill:#ffffff" />
      <use
         id="use48360"
         xlink:href="#r0-4"
         y="223"
         x="815"
         width="100%"
         height="100%" />
      <use
         id="use48362"
         xlink:href="#r0-4"
         y="223"
         x="889"
         width="100%"
         height="100%" />
      <use
         id="use48364"
         xlink:href="#r0-4"
         y="223"
         x="1111"
         width="100%"
         height="100%" />
      <use
         id="use48366"
         xlink:href="#r0-4"
         y="297"
         x="1037"
         width="100%"
         height="100%" />
      <use
         id="use48368"
         xlink:href="#r0-4"
         y="297"
         x="1111"
         width="100%"
         height="100%" />
      <use
         id="use48370"
         xlink:href="#r0-4"
         y="371"
         x="889"
         width="100%"
         height="100%" />
      <use
         id="use48372"
         xlink:href="#r0-4"
         y="371"
         x="963"
         width="100%"
         height="100%" />
      <use
         id="use48374"
         xlink:href="#r0-4"
         y="445"
         x="963"
         width="100%"
         height="100%" />
      <use
         id="use48376"
         xlink:href="#r0-4"
         y="519"
         x="963"
         width="100%"
         height="100%" />
      <use
         id="use48378"
         xlink:href="#r0-4"
         y="593"
         x="1111"
         width="100%"
         height="100%" />
      <use
         id="use48380"
         xlink:href="#r0-4"
         y="667"
         x="815"
         width="100%"
         height="100%" />
      <use
         id="use48382"
         xlink:href="#r0-4"
         y="667"
         x="963"
         width="100%"
         height="100%" />
      <use
         id="use48384"
         xlink:href="#r0-4"
         y="667"
         x="1111"
         width="100%"
         height="100%" />
      <use
         id="use48386"
         xlink:href="#r0-4"
         y="741"
         x="815"
         width="100%"
         height="100%" />
      <use
         id="use48388"
         xlink:href="#r0-4"
         y="741"
         x="889"
         width="100%"
         height="100%" />
      <use
         id="use48390"
         xlink:href="#r0-4"
         y="741"
         x="963"
         width="100%"
         height="100%" />
      <use
         id="use48392"
         xlink:href="#r0-4"
         y="741"
         x="1037"
         width="100%"
         height="100%" />
      <use
         id="use48394"
         xlink:href="#r0-4"
         y="815"
         x="223"
         width="100%"
         height="100%" />
      <use
         id="use48396"
         xlink:href="#r0-4"
         y="815"
         x="297"
         width="100%"
         height="100%" />
      <use
         id="use48398"
         xlink:href="#r0-4"
         y="815"
         x="445"
         width="100%"
         height="100%" />
      <use
         id="use48400"
         xlink:href="#r0-4"
         y="815"
         x="519"
         width="100%"
         height="100%" />
      <use
         id="use48402"
         xlink:href="#r0-4"
         y="815"
         x="667"
         width="100%"
         height="100%" />
      <use
         id="use48404"
         xlink:href="#r0-4"
         y="815"
         x="889"
         width="100%"
         height="100%" />
      <use
         id="use48406"
         xlink:href="#r0-4"
         y="815"
         x="963"
         width="100%"
         height="100%" />
      <use
         id="use48408"
         xlink:href="#r0-4"
         y="815"
         x="1037"
         width="100%"
         height="100%" />
      <use
         id="use48410"
         xlink:href="#r0-4"
         y="815"
         x="1259"
         width="100%"
         height="100%" />
      <use
         id="use48412"
         xlink:href="#r0-4"
         y="815"
         x="1703"
         width="100%"
         height="100%" />
      <use
         id="use48414"
         xlink:href="#r0-4"
         y="889"
         x="445"
         width="100%"
         height="100%" />
      <use
         id="use48416"
         xlink:href="#r0-4"
         y="889"
         x="593"
         width="100%"
         height="100%" />
      <use
         id="use48418"
         xlink:href="#r0-4"
         y="889"
         x="741"
         width="100%"
         height="100%" />
      <use
         id="use48420"
         xlink:href="#r0-4"
         y="889"
         x="815"
         width="100%"
         height="100%" />
      <use
         id="use48422"
         xlink:href="#r0-4"
         y="889"
         x="889"
         width="100%"
         height="100%" />
      <use
         id="use48424"
         xlink:href="#r0-4"
         y="889"
         x="963"
         width="100%"
         height="100%" />
      <use
         id="use48426"
         xlink:href="#r0-4"
         y="889"
         x="1259"
         width="100%"
         height="100%" />
      <use
         id="use48428"
         xlink:href="#r0-4"
         y="889"
         x="1333"
         width="100%"
         height="100%" />
      <use
         id="use48430"
         xlink:href="#r0-4"
         y="889"
         x="1481"
         width="100%"
         height="100%" />
      <use
         id="use48432"
         xlink:href="#r0-4"
         y="889"
         x="1555"
         width="100%"
         height="100%" />
      <use
         id="use48434"
         xlink:href="#r0-4"
         y="889"
         x="1629"
         width="100%"
         height="100%" />
      <use
         id="use48436"
         xlink:href="#r0-4"
         y="963"
         x="223"
         width="100%"
         height="100%" />
      <use
         id="use48438"
         xlink:href="#r0-4"
         y="963"
         x="297"
         width="100%"
         height="100%" />
      <use
         id="use48440"
         xlink:href="#r0-4"
         y="963"
         x="371"
         width="100%"
         height="100%" />
      <use
         id="use48442"
         xlink:href="#r0-4"
         y="963"
         x="445"
         width="100%"
         height="100%" />
      <use
         id="use48444"
         xlink:href="#r0-4"
         y="963"
         x="667"
         width="100%"
         height="100%" />
      <use
         id="use48446"
         xlink:href="#r0-4"
         y="963"
         x="889"
         width="100%"
         height="100%" />
      <use
         id="use48448"
         xlink:href="#r0-4"
         y="963"
         x="1037"
         width="100%"
         height="100%" />
      <use
         id="use48450"
         xlink:href="#r0-4"
         y="963"
         x="1111"
         width="100%"
         height="100%" />
      <use
         id="use48452"
         xlink:href="#r0-4"
         y="963"
         x="1185"
         width="100%"
         height="100%" />
      <use
         id="use48454"
         xlink:href="#r0-4"
         y="963"
         x="1481"
         width="100%"
         height="100%" />
      <use
         id="use48456"
         xlink:href="#r0-4"
         y="963"
         x="1555"
         width="100%"
         height="100%" />
      <use
         id="use48458"
         xlink:href="#r0-4"
         y="963"
         x="1629"
         width="100%"
         height="100%" />
      <use
         id="use48460"
         xlink:href="#r0-4"
         y="963"
         x="1703"
         width="100%"
         height="100%" />
      <use
         id="use48462"
         xlink:href="#r0-4"
         y="1037"
         x="445"
         width="100%"
         height="100%" />
      <use
         id="use48464"
         xlink:href="#r0-4"
         y="1037"
         x="519"
         width="100%"
         height="100%" />
      <use
         id="use48466"
         xlink:href="#r0-4"
         y="1037"
         x="593"
         width="100%"
         height="100%" />
      <use
         id="use48468"
         xlink:href="#r0-4"
         y="1037"
         x="741"
         width="100%"
         height="100%" />
      <use
         id="use48470"
         xlink:href="#r0-4"
         y="1037"
         x="815"
         width="100%"
         height="100%" />
      <use
         id="use48472"
         xlink:href="#r0-4"
         y="1037"
         x="963"
         width="100%"
         height="100%" />
      <use
         id="use48474"
         xlink:href="#r0-4"
         y="1037"
         x="1111"
         width="100%"
         height="100%" />
      <use
         id="use48476"
         xlink:href="#r0-4"
         y="1037"
         x="1185"
         width="100%"
         height="100%" />
      <use
         id="use48478"
         xlink:href="#r0-4"
         y="1037"
         x="1333"
         width="100%"
         height="100%" />
      <use
         id="use48480"
         xlink:href="#r0-4"
         y="1037"
         x="1555"
         width="100%"
         height="100%" />
      <use
         id="use48482"
         xlink:href="#r0-4"
         y="1111"
         x="223"
         width="100%"
         height="100%" />
      <use
         id="use48484"
         xlink:href="#r0-4"
         y="1111"
         x="297"
         width="100%"
         height="100%" />
      <use
         id="use48486"
         xlink:href="#r0-4"
         y="1111"
         x="371"
         width="100%"
         height="100%" />
      <use
         id="use48488"
         xlink:href="#r0-4"
         y="1111"
         x="445"
         width="100%"
         height="100%" />
      <use
         id="use48490"
         xlink:href="#r0-4"
         y="1111"
         x="667"
         width="100%"
         height="100%" />
      <use
         id="use48492"
         xlink:href="#r0-4"
         y="1111"
         x="815"
         width="100%"
         height="100%" />
      <use
         id="use48494"
         xlink:href="#r0-4"
         y="1111"
         x="1111"
         width="100%"
         height="100%" />
      <use
         id="use48496"
         xlink:href="#r0-4"
         y="1111"
         x="1629"
         width="100%"
         height="100%" />
      <use
         id="use48498"
         xlink:href="#r0-4"
         y="1185"
         x="815"
         width="100%"
         height="100%" />
      <use
         id="use48500"
         xlink:href="#r0-4"
         y="1185"
         x="1185"
         width="100%"
         height="100%" />
      <use
         id="use48502"
         xlink:href="#r0-4"
         y="1185"
         x="1259"
         width="100%"
         height="100%" />
      <use
         id="use48504"
         xlink:href="#r0-4"
         y="1185"
         x="1407"
         width="100%"
         height="100%" />
      <use
         id="use48506"
         xlink:href="#r0-4"
         y="1185"
         x="1481"
         width="100%"
         height="100%" />
      <use
         id="use48508"
         xlink:href="#r0-4"
         y="1185"
         x="1555"
         width="100%"
         height="100%" />
      <use
         id="use48510"
         xlink:href="#r0-4"
         y="1185"
         x="1629"
         width="100%"
         height="100%" />
      <use
         id="use48512"
         xlink:href="#r0-4"
         y="1259"
         x="889"
         width="100%"
         height="100%" />
      <use
         id="use48514"
         xlink:href="#r0-4"
         y="1259"
         x="1037"
         width="100%"
         height="100%" />
      <use
         id="use48516"
         xlink:href="#r0-4"
         y="1259"
         x="1111"
         width="100%"
         height="100%" />
      <use
         id="use48518"
         xlink:href="#r0-4"
         y="1259"
         x="1333"
         width="100%"
         height="100%" />
      <use
         id="use48520"
         xlink:href="#r0-4"
         y="1259"
         x="1407"
         width="100%"
         height="100%" />
      <use
         id="use48522"
         xlink:href="#r0-4"
         y="1259"
         x="1555"
         width="100%"
         height="100%" />
      <use
         id="use48524"
         xlink:href="#r0-4"
         y="1333"
         x="963"
         width="100%"
         height="100%" />
      <use
         id="use48526"
         xlink:href="#r0-4"
         y="1333"
         x="1185"
         width="100%"
         height="100%" />
      <use
         id="use48528"
         xlink:href="#r0-4"
         y="1333"
         x="1259"
         width="100%"
         height="100%" />
      <use
         id="use48530"
         xlink:href="#r0-4"
         y="1333"
         x="1333"
         width="100%"
         height="100%" />
      <use
         id="use48532"
         xlink:href="#r0-4"
         y="1333"
         x="1481"
         width="100%"
         height="100%" />
      <use
         id="use48534"
         xlink:href="#r0-4"
         y="1333"
         x="1555"
         width="100%"
         height="100%" />
      <use
         id="use48536"
         xlink:href="#r0-4"
         y="1333"
         x="1703"
         width="100%"
         height="100%" />
      <use
         id="use48538"
         xlink:href="#r0-4"
         y="1407"
         x="815"
         width="100%"
         height="100%" />
      <use
         id="use48540"
         xlink:href="#r0-4"
         y="1407"
         x="963"
         width="100%"
         height="100%" />
      <use
         id="use48542"
         xlink:href="#r0-4"
         y="1407"
         x="1037"
         width="100%"
         height="100%" />
      <use
         id="use48544"
         xlink:href="#r0-4"
         y="1407"
         x="1111"
         width="100%"
         height="100%" />
      <use
         id="use48546"
         xlink:href="#r0-4"
         y="1407"
         x="1185"
         width="100%"
         height="100%" />
      <use
         id="use48548"
         xlink:href="#r0-4"
         y="1407"
         x="1407"
         width="100%"
         height="100%" />
      <use
         id="use48550"
         xlink:href="#r0-4"
         y="1407"
         x="1703"
         width="100%"
         height="100%" />
      <use
         id="use48552"
         xlink:href="#r0-4"
         y="1481"
         x="815"
         width="100%"
         height="100%" />
      <use
         id="use48554"
         xlink:href="#r0-4"
         y="1481"
         x="963"
         width="100%"
         height="100%" />
      <use
         id="use48556"
         xlink:href="#r0-4"
         y="1481"
         x="1185"
         width="100%"
         height="100%" />
      <use
         id="use48558"
         xlink:href="#r0-4"
         y="1481"
         x="1481"
         width="100%"
         height="100%" />
      <use
         id="use48560"
         xlink:href="#r0-4"
         y="1481"
         x="1555"
         width="100%"
         height="100%" />
      <use
         id="use48562"
         xlink:href="#r0-4"
         y="1481"
         x="1629"
         width="100%"
         height="100%" />
      <use
         id="use48564"
         xlink:href="#r0-4"
         y="1555"
         x="889"
         width="100%"
         height="100%" />
      <use
         id="use48566"
         xlink:href="#r0-4"
         y="1555"
         x="963"
         width="100%"
         height="100%" />
      <use
         id="use48568"
         xlink:href="#r0-4"
         y="1555"
         x="1111"
         width="100%"
         height="100%" />
      <use
         id="use48570"
         xlink:href="#r0-4"
         y="1555"
         x="1259"
         width="100%"
         height="100%" />
      <use
         id="use48572"
         xlink:href="#r0-4"
         y="1555"
         x="1333"
         width="100%"
         height="100%" />
      <use
         id="use48574"
         xlink:href="#r0-4"
         y="1555"
         x="1407"
         width="100%"
         height="100%" />
      <use
         id="use48576"
         xlink:href="#r0-4"
         y="1555"
         x="1481"
         width="100%"
         height="100%" />
      <use
         id="use48578"
         xlink:href="#r0-4"
         y="1555"
         x="1555"
         width="100%"
         height="100%" />
      <use
         id="use48580"
         xlink:href="#r0-4"
         y="1555"
         x="1629"
         width="100%"
         height="100%" />
      <use
         id="use48582"
         xlink:href="#r0-4"
         y="1555"
         x="1703"
         width="100%"
         height="100%" />
      <use
         id="use48584"
         xlink:href="#r0-4"
         y="1629"
         x="815"
         width="100%"
         height="100%" />
      <use
         id="use48586"
         xlink:href="#r0-4"
         y="1629"
         x="889"
         width="100%"
         height="100%" />
      <use
         id="use48588"
         xlink:href="#r0-4"
         y="1629"
         x="1185"
         width="100%"
         height="100%" />
      <use
         id="use48590"
         xlink:href="#r0-4"
         y="1629"
         x="1259"
         width="100%"
         height="100%" />
      <use
         id="use48592"
         xlink:href="#r0-4"
         y="1629"
         x="1407"
         width="100%"
         height="100%" />
      <use
         id="use48594"
         xlink:href="#r0-4"
         y="1629"
         x="1555"
         width="100%"
         height="100%" />
      <use
         id="use48596"
         xlink:href="#r0-4"
         y="1629"
         x="1629"
         width="100%"
         height="100%" />
      <use
         id="use48598"
         xlink:href="#r0-4"
         y="1629"
         x="1703"
         width="100%"
         height="100%" />
      <use
         id="use48600"
         xlink:href="#r0-4"
         y="1703"
         x="815"
         width="100%"
         height="100%" />
      <use
         id="use48602"
         xlink:href="#r0-4"
         y="1703"
         x="889"
         width="100%"
         height="100%" />
      <use
         id="use48604"
         xlink:href="#r0-4"
         y="1703"
         x="1037"
         width="100%"
         height="100%" />
      <use
         id="use48606"
         xlink:href="#r0-4"
         y="1703"
         x="1185"
         width="100%"
         height="100%" />
      <use
         id="use48608"
         xlink:href="#r0-4"
         y="1703"
         x="1259"
         width="100%"
         height="100%" />
      <use
         id="use48610"
         xlink:href="#r0-4"
         y="1703"
         x="1333"
         width="100%"
         height="100%" />
      <use
         id="use48612"
         xlink:href="#r0-4"
         y="1703"
         x="1481"
         width="100%"
         height="100%" />
      <svg
         xml:space="preserve"
         enable-background="new 0 0 699.988 699.986"
         viewBox="0 0 699.988 699.986"
         height="518"
         width="518"
         y="223"
         x="223"
         id="Ebene_1"
         version="1.1"
         inkscape:version="0.91 r13725"
         style="shape-rendering:auto"><path
           id="path48615"
           d="m 600.99,0 -100,0 -99.997,0 -10e-4,0 L 300.995,0 200.997,0 100.999,0 1,0 l 0,99.998 0,99.998 0,99.998 0,99.999 0,99.997 0,99.998 0,99.998 99.999,0 99.998,0 99.998,0 99.997,0 10e-4,0 99.997,0 100,0 99.998,0 0,-99.998 0,-99.998 0,-99.997 0,-99.999 0,-99.998 0,-99.998 0,-99.998 -99.998,0 z m 0,199.996 0,99.998 0,99.999 0,99.997 0,99.998 -100,0 -99.997,0 -10e-4,0 -99.997,0 -99.998,0 -99.998,0 0,-99.998 0,-99.997 0,-99.999 0,-99.998 0,-99.998 99.998,0 99.998,0 99.997,0 10e-4,0 99.997,0 100,0 0,99.998 z"
           inkscape:connector-curvature="0"
           style="fill:#000000" /></svg>      <svg
         xml:space="preserve"
         enable-background="new 0 0 699.988 699.988"
         viewBox="0 0 699.988 699.988"
         height="518"
         width="518"
         y="223"
         x="223"
         id="svg48617"
         version="1.0"
         inkscape:version="0.91 r13725"
         style="shape-rendering:auto"><polygon
           id="polygon48619"
           points="399.994,499.991 499.99,499.991 499.99,399.994 499.99,299.994 499.99,199.997 399.994,199.997 399.992,199.997 299.996,199.997 199.998,199.997 199.998,299.994 199.998,399.994 199.998,499.991 299.996,499.991 399.992,499.991 "
           style="fill:#000000" /></svg>      <svg
         xml:space="preserve"
         enable-background="new 0 0 699.988 699.986"
         viewBox="0 0 699.988 699.986"
         height="518"
         width="518"
         y="223"
         x="1259"
         id="svg48621"
         version="1.1"
         inkscape:version="0.91 r13725"
         style="shape-rendering:auto"><path
           id="path48623"
           d="m 600.99,0 -100,0 -99.997,0 -10e-4,0 L 300.995,0 200.997,0 100.999,0 1,0 l 0,99.998 0,99.998 0,99.998 0,99.999 0,99.997 0,99.998 0,99.998 99.999,0 99.998,0 99.998,0 99.997,0 10e-4,0 99.997,0 100,0 99.998,0 0,-99.998 0,-99.998 0,-99.997 0,-99.999 0,-99.998 0,-99.998 0,-99.998 -99.998,0 z m 0,199.996 0,99.998 0,99.999 0,99.997 0,99.998 -100,0 -99.997,0 -10e-4,0 -99.997,0 -99.998,0 -99.998,0 0,-99.998 0,-99.997 0,-99.999 0,-99.998 0,-99.998 99.998,0 99.998,0 99.997,0 10e-4,0 99.997,0 100,0 0,99.998 z"
           inkscape:connector-curvature="0"
           style="fill:#000000" /></svg>      <svg
         xml:space="preserve"
         enable-background="new 0 0 699.988 699.988"
         viewBox="0 0 699.988 699.988"
         height="518"
         width="518"
         y="223"
         x="1259"
         id="svg48625"
         version="1.0"
         inkscape:version="0.91 r13725"
         style="shape-rendering:auto"><polygon
           id="polygon48627"
           points="399.994,499.991 499.99,499.991 499.99,399.994 499.99,299.994 499.99,199.997 399.994,199.997 399.992,199.997 299.996,199.997 199.998,199.997 199.998,299.994 199.998,399.994 199.998,499.991 299.996,499.991 399.992,499.991 "
           style="fill:#000000" /></svg>      <svg
         xml:space="preserve"
         enable-background="new 0 0 699.988 699.986"
         viewBox="0 0 699.988 699.986"
         height="518"
         width="518"
         y="1259"
         x="223"
         id="svg48629"
         version="1.1"
         inkscape:version="0.91 r13725"
         style="shape-rendering:auto"><path
           id="path48631"
           d="m 600.99,0 -100,0 -99.997,0 -10e-4,0 L 300.995,0 200.997,0 100.999,0 1,0 l 0,99.998 0,99.998 0,99.998 0,99.999 0,99.997 0,99.998 0,99.998 99.999,0 99.998,0 99.998,0 99.997,0 10e-4,0 99.997,0 100,0 99.998,0 0,-99.998 0,-99.998 0,-99.997 0,-99.999 0,-99.998 0,-99.998 0,-99.998 -99.998,0 z m 0,199.996 0,99.998 0,99.999 0,99.997 0,99.998 -100,0 -99.997,0 -10e-4,0 -99.997,0 -99.998,0 -99.998,0 0,-99.998 0,-99.997 0,-99.999 0,-99.998 0,-99.998 99.998,0 99.998,0 99.997,0 10e-4,0 99.997,0 100,0 0,99.998 z"
           inkscape:connector-curvature="0"
           style="fill:#000000" /></svg>      <svg
         xml:space="preserve"
         enable-background="new 0 0 699.988 699.988"
         viewBox="0 0 699.988 699.988"
         height="518"
         width="518"
         y="1259"
         x="223"
         id="svg48633"
         version="1.0"
         inkscape:version="0.91 r13725"
         style="shape-rendering:auto"><polygon
           id="polygon48635"
           points="399.994,499.991 499.99,499.991 499.99,399.994 499.99,299.994 499.99,199.997 399.994,199.997 399.992,199.997 299.996,199.997 199.998,199.997 199.998,299.994 199.998,399.994 199.998,499.991 299.996,499.991 399.992,499.991 "
           style="fill:#000000" /></svg>    </g>
  </g>
</svg>
